# xmcd
#
# Track frame offsets:
#	150
#	17643
#	33595
#	50160
#	67185
#	84098
#	96335
#	111848
#	127885
#	143803
#	161608
#	179360
#	202603
#
# Disc length: 2921 seconds
#
# Revision: 1
# Processed by: cddbd v1.5.1PL0 Copyright (c) Steve Scherf et al.
# Submitted via: CDex 1.50Beta5
#
DISCID=ac0b670d
DTITLE=島倉千代子 - 島倉千代子ヒット曲集 Disc 1
DYEAR=1900
DGENRE=World
TTITLE0=人生いろいろ
TTITLE1=夢飾り
TTITLE2=ほれているのに
TTITLE3=鳳仙花
TTITLE4=ほんきかしら
TTITLE5=恋しているんだもん
TTITLE6=愛のさざなみ
TTITLE7=ふたりだけの太陽
TTITLE8=涙の谷間に太陽を
TTITLE9=浅草メロドラマ
TTITLE10=くちべに挽歌
TTITLE11=夢・浪漫NARA
TTITLE12=心うきうき
EXTD=
EXTT0=
EXTT1=
EXTT2=
EXTT3=
EXTT4=
EXTT5=
EXTT6=
EXTT7=
EXTT8=
EXTT9=
EXTT10=
EXTT11=
EXTT12=
PLAYORDER=
